<?xml version="1.0" encoding="UTF-8" standalone="no"?>
<svg xmlns="http://www.w3.org/2000/svg" xlink="http://www.w3.org/1999/xlink" fill="#ffffff" version="1.1" x="0px" y="0px" viewBox="0 0 451.514 451.514" xml:space="preserve">
	<g>
		<path d="M41.693,76.554c-7.168-3.584-15.872-0.512-19.968,6.656c-25.6,50.688-28.672,109.568-8.704,162.816    c3.072,8.192,11.776,11.776,19.968,9.216s12.288-12.288,9.216-19.968c-16.896-45.056-14.336-95.232,7.168-138.24    C52.957,89.354,49.373,80.138,41.693,76.554z"></path>
	</g>
	<g>
		<path d="M429.789,83.21c-3.584-7.68-12.8-10.752-20.48-6.656c-7.68,3.584-10.752,12.8-6.656,20.48    c21.504,43.008,24.064,93.184,7.168,138.24c-3.072,7.68,1.024,16.896,8.704,19.968c7.68,3.072,16.896-1.024,19.968-8.704    C458.461,192.778,455.389,133.898,429.789,83.21z"></path>
	</g>
	<g>
		<path d="M78.045,126.218c-8.192-2.048-16.384,3.072-18.432,11.264c-5.12,21.504-5.632,44.032-2.048,66.048    c2.048,8.192,10.24,13.312,18.432,11.776s13.312-9.216,11.776-17.408c-3.072-17.92-2.56-35.84,1.536-53.248    C91.357,136.458,86.237,128.266,78.045,126.218z"></path>
	</g>
	<g>
		<path d="M392.413,136.97c-1.536-8.192-9.728-13.824-17.92-12.288c-8.192,1.536-13.824,9.728-12.288,17.92c0,0.512,0,1.024,0,1.536    c4.096,17.408,4.608,35.84,1.536,53.248c-1.536,8.192,4.096,16.384,12.288,17.92c8.192,1.536,16.384-4.096,17.92-12.288    C398.045,181.002,397.533,158.474,392.413,136.97z"></path>
	</g>
	<g>
		<path d="M373.981,285.45c-22.016-23.552-31.744-47.616-31.744-77.312v-33.792c0-41.472-22.528-79.36-58.368-99.84V60.682    c0-31.744-25.6-57.344-57.344-57.344c-31.744,0-57.344,25.6-57.344,57.344V75.53c-36.352,21.504-58.368,60.928-58.368,102.912    v29.696c0,29.696-9.728,53.76-31.744,77.312c-24.064,1.536-43.008,21.504-43.008,46.08v11.776c0,25.6,20.48,46.08,46.08,46.08    h78.848c4.096,36.352,36.864,62.464,73.216,58.368c30.72-3.584,54.784-27.648,58.368-58.368h78.848    c25.6,0,46.08-20.48,46.08-46.08V331.53C416.989,306.954,398.045,286.986,373.981,285.45z"></path>
	</g>
</svg>